<svg id="Camada_1" data-name="Camada 1" xmlns="http://www.w3.org/2000/svg" xmlns:xlink="http://www.w3.org/1999/xlink" viewBox="0 0 179 54"><defs><style>.cls-1{fill:#dadada;}.cls-2{fill:#fff;}.cls-3{mask:url(#mask);}.cls-4{filter:url(#luminosity-noclip);}</style><filter id="luminosity-noclip" x="0.28" y="0.32" width="77.12" height="53.36" filterUnits="userSpaceOnUse" color-interpolation-filters="sRGB"><feFlood flood-color="#fff" result="bg"/><feBlend in="SourceGraphic" in2="bg"/></filter><mask id="mask" x="0.28" y="0.32" width="77.12" height="53.36" maskUnits="userSpaceOnUse"><g class="cls-4"><path class="cls-1" d="M36.43,39.09C29.59,45,22.83,49.41,17,51.75l-.35.13c-6,2.35-10.89,2.49-13.8-.09-.11-.1-.22-.2-.32-.31A6.53,6.53,0,0,1,2,50.85l-.12-.16-.12-.18a1,1,0,0,1-.11-.17,1.18,1.18,0,0,1-.11-.19A1.42,1.42,0,0,1,1.45,50l-.12-.22a.8.8,0,0,0-.08-.16,10.52,10.52,0,0,1-.41-1l-.12-.4c-.07-.24-.12-.48-.17-.73a1.16,1.16,0,0,1,0-.18l0-.14a.88.88,0,0,0,0-.16,1.87,1.87,0,0,1,0-.25s0-.09,0-.14l0-.25,0-.27h0c0-.09,0-.18,0-.27a1.21,1.21,0,0,1,0-.19c0-.31,0-.63,0-1V44c0-.09,0-.18,0-.26s0-.18,0-.27a.49.49,0,0,0,0-.12c0-.08,0-.17,0-.25l0-.31a1.63,1.63,0,0,1,0-.31,1.23,1.23,0,0,1,0-.19l0-.28,0-.27v0c0-.15,0-.3.07-.46s.07-.47.11-.7a3.4,3.4,0,0,1,.07-.34c0-.12,0-.24.07-.36s0-.21.07-.32l.06-.29c0-.12.05-.24.08-.36s.05-.21.08-.32.11-.44.17-.67c0,0,0-.11.05-.17s.07-.26.1-.39l.06-.19.12-.42c0-.18.11-.35.16-.53s.07-.23.11-.34.13-.4.2-.6l.12-.38c.05-.14.1-.28.16-.43s.06-.19.1-.28c.08-.24.17-.48.26-.72l0-.08c.18-.46.36-.93.55-1.4l.3-.7c.38-.91.79-1.83,1.24-2.76L5,28.15s0-.11.08-.16l.28-.56,0-.05.38-.75c.27-.54.55-1.07.84-1.61L7,24.24,8,22.63l.24-.41.05-.09L8.31,22a.86.86,0,0,1,.1-.16,1,1,0,0,1,.08-.14l.09-.15.16-.25.14-.22.27-.42c.23-.34.47-.7.71-1a32,32,0,0,0-1.2,4.7h0l-.13.3C3.77,35,2.77,43.56,6.93,47.24c1.78,1.58,4.34,2.13,7.42,1.78l.34,0c5.73-.76,13.23-4.55,21.13-10.64Z"/><path class="cls-1" d="M69.86,18.25l-29,23.23a.4.4,0,0,1-.56-.06l-5.47-6.83L64,11.22h.12a5.76,5.76,0,0,0,5.73,7Z"/><path class="cls-1" d="M48.36,44.87l-4.59-5.75L56.5,28.93l0,9.24A1.38,1.38,0,0,1,56,39.26l-7.09,5.67A.4.4,0,0,1,48.36,44.87Z"/><path class="cls-1" d="M26.78,34.18H41.1a0,0,0,0,1,0,0v1.48a.71.71,0,0,1-.71.71H27.48a.71.71,0,0,1-.71-.71V34.18a0,0,0,0,1,0,0Z" transform="translate(40.28 -13.26) rotate(51.34)"/></g></mask></defs><path class="cls-2" d="M64.88,38.29l-.14,0,0-.23C64.81,38.13,64.85,38.21,64.88,38.29Z"/><line class="cls-2" x1="61.44" y1="43.07" x2="61.23" y2="42.87"/><path class="cls-2" d="M49.19,33.23l0-.27.14-.07C49.25,33,49.22,33.12,49.19,33.23Z"/><path class="cls-2" d="M90,50.75l-.1-.64L90.2,50C90.12,50.22,90.05,50.48,90,50.75Z"/><path class="cls-2" d="M142,49.33l-.16,0,0-.25Z"/><path class="cls-2" d="M90.57,17.07c-.92-.32-1.76-.64-2.52-1a7.68,7.68,0,0,1-2-1.18,4.87,4.87,0,0,1-1.27-1.65,5.41,5.41,0,0,1-.46-2.35,5.17,5.17,0,0,1,2.06-4.29A9.19,9.19,0,0,1,92.21,5a15.28,15.28,0,0,1,2.52.19,7.47,7.47,0,0,1,2,.58,3.56,3.56,0,0,1,1.31,1,2.32,2.32,0,0,1,.47,1.44,2.55,2.55,0,0,1-.38,1.4,3.92,3.92,0,0,1-.91,1,7.42,7.42,0,0,0-1.87-.77,9.26,9.26,0,0,0-2.55-.33,4.23,4.23,0,0,0-2.08.39,1.17,1.17,0,0,0-.66,1,.9.9,0,0,0,.41.77,4.22,4.22,0,0,0,1.23.55l1.67.54a12.05,12.05,0,0,1,4.55,2.41,5.14,5.14,0,0,1,1.6,4,5.23,5.23,0,0,1-2.12,4.33c-1.4,1.11-3.48,1.66-6.21,1.66a14.17,14.17,0,0,1-2.69-.24,8.46,8.46,0,0,1-2.18-.69,4,4,0,0,1-1.45-1.14,2.47,2.47,0,0,1-.52-1.56A2.35,2.35,0,0,1,84.9,20a4,4,0,0,1,1.16-1,8.82,8.82,0,0,0,2.16,1.2,7.65,7.65,0,0,0,2.79.5,3.8,3.8,0,0,0,2.18-.47,1.37,1.37,0,0,0,.63-1.11,1.07,1.07,0,0,0-.51-1,6.33,6.33,0,0,0-1.41-.64Z"/><path class="cls-2" d="M102,9.56a7.27,7.27,0,0,1,1-.19,10.67,10.67,0,0,1,1.41-.09,7.76,7.76,0,0,1,1.24.09,2.06,2.06,0,0,1,.93.38,1.81,1.81,0,0,1,.58.77,3.29,3.29,0,0,1,.21,1.28v6.78a2.32,2.32,0,0,0,.63,1.84,2.69,2.69,0,0,0,1.83.56,4.7,4.7,0,0,0,1.18-.13,4,4,0,0,0,.71-.25v-11a7.27,7.27,0,0,1,1-.19,10.78,10.78,0,0,1,1.41-.09,7.67,7.67,0,0,1,1.24.09,2.06,2.06,0,0,1,.93.38,1.83,1.83,0,0,1,.59.77,3.51,3.51,0,0,1,.2,1.28v9.59a2.57,2.57,0,0,1-1.32,2.36,8.78,8.78,0,0,1-2.64,1.06,14.44,14.44,0,0,1-3.32.36,12.39,12.39,0,0,1-3.14-.38,6.94,6.94,0,0,1-2.48-1.17,5.11,5.11,0,0,1-1.6-2,7.19,7.19,0,0,1-.57-3Z"/><path class="cls-2" d="M127.4,8.87a12.33,12.33,0,0,1,3.52.48,7.65,7.65,0,0,1,2.79,1.5,7,7,0,0,1,1.83,2.54A9.17,9.17,0,0,1,136.2,17a10,10,0,0,1-.57,3.54A6.84,6.84,0,0,1,134,23.1a6.44,6.44,0,0,1-2.51,1.53,9.91,9.91,0,0,1-3.26.51,7.67,7.67,0,0,1-2.53-.41V30a8,8,0,0,1-1,.21,9.39,9.39,0,0,1-1.42.11,6.7,6.7,0,0,1-1.24-.1,2.17,2.17,0,0,1-.93-.37,1.77,1.77,0,0,1-.57-.78,3.47,3.47,0,0,1-.19-1.27V12.62a2.45,2.45,0,0,1,.36-1.39,4.06,4.06,0,0,1,1-1,8.54,8.54,0,0,1,2.43-1A12.94,12.94,0,0,1,127.4,8.87Zm.07,12q3.24,0,3.24-3.88a4.62,4.62,0,0,0-.8-3,2.84,2.84,0,0,0-2.32-1,3.91,3.91,0,0,0-1.07.14,5.37,5.37,0,0,0-.82.33v6.94a5,5,0,0,0,.82.32A3.64,3.64,0,0,0,127.47,20.91Z"/><path class="cls-2" d="M146.92,25.17a10.94,10.94,0,0,1-3.45-.52,7.85,7.85,0,0,1-2.77-1.56,7.26,7.26,0,0,1-1.86-2.62,9.14,9.14,0,0,1-.68-3.69,8.5,8.5,0,0,1,.68-3.58,7,7,0,0,1,1.78-2.46,7.13,7.13,0,0,1,2.52-1.42,9.54,9.54,0,0,1,2.9-.45,8.66,8.66,0,0,1,3,.5,7.31,7.31,0,0,1,2.37,1.39A6.09,6.09,0,0,1,153,12.87a6.43,6.43,0,0,1,.56,2.68,2.14,2.14,0,0,1-.6,1.64,3,3,0,0,1-1.67.73l-7.79,1.16a2.57,2.57,0,0,0,1.42,1.56,5.5,5.5,0,0,0,2.46.52,8.82,8.82,0,0,0,2.44-.33,7.62,7.62,0,0,0,1.88-.77,2.76,2.76,0,0,1,.85.88,2.34,2.34,0,0,1-1,3.32,7.28,7.28,0,0,1-2.27.72A15.5,15.5,0,0,1,146.92,25.17ZM146,12.78a3.13,3.13,0,0,0-1.31.25,2.55,2.55,0,0,0-.9.65,2.7,2.7,0,0,0-.52.88,3.79,3.79,0,0,0-.2,1l5.39-.88A2.33,2.33,0,0,0,146,12.78Z"/><path class="cls-2" d="M161.49,24.63a6,6,0,0,1-1,.19,9.14,9.14,0,0,1-1.4.1,6.73,6.73,0,0,1-1.25-.1,2.06,2.06,0,0,1-.93-.38,1.7,1.7,0,0,1-.58-.77,3.25,3.25,0,0,1-.21-1.28V12.93a2.67,2.67,0,0,1,.27-1.24,3,3,0,0,1,.77-.93,5.65,5.65,0,0,1,1.25-.74A12.84,12.84,0,0,1,160,9.43,14.24,14.24,0,0,1,161.78,9a11.28,11.28,0,0,1,1.83-.14,4.29,4.29,0,0,1,2.39.58,2.13,2.13,0,0,1,.89,1.91,3.27,3.27,0,0,1-.13.87,4.14,4.14,0,0,1-.32.77q-.66,0-1.35.06c-.46,0-.92.11-1.36.19s-.86.17-1.24.27a5.09,5.09,0,0,0-1,.33Z"/><path class="cls-2" d="M85,35A2.73,2.73,0,0,1,87.9,32.1H98.31a4.3,4.3,0,0,1,.39.92,4,4,0,0,1,.17,1.2,2.31,2.31,0,0,1-.52,1.7,1.85,1.85,0,0,1-1.37.5H90.33v2.94h7.09a3.92,3.92,0,0,1,.4.89A4.17,4.17,0,0,1,98,41.44a2.38,2.38,0,0,1-.5,1.7,1.83,1.83,0,0,1-1.36.5h-5.8V47h8.1a3.73,3.73,0,0,1,.4.91,4.3,4.3,0,0,1,.17,1.2,2.36,2.36,0,0,1-.52,1.72,1.88,1.88,0,0,1-1.37.52H87.9A2.73,2.73,0,0,1,85,48.37Z"/><path class="cls-2" d="M111.39,41.5a1.74,1.74,0,0,0-.55-1.43,2.26,2.26,0,0,0-1.5-.46,4.74,4.74,0,0,0-1.24.16,3.11,3.11,0,0,0-1.06.47V51.18a7.27,7.27,0,0,1-1,.19,10.63,10.63,0,0,1-1.41.1,7.69,7.69,0,0,1-1.24-.1,2.06,2.06,0,0,1-.93-.38,1.75,1.75,0,0,1-.58-.77,3.29,3.29,0,0,1-.21-1.28V39.48a2.45,2.45,0,0,1,.36-1.39,3.87,3.87,0,0,1,1-1,8.71,8.71,0,0,1,2.69-1.23,12.72,12.72,0,0,1,3.61-.48A8.51,8.51,0,0,1,114.83,37a5.3,5.3,0,0,1,1.92,4.34v9.87a7.27,7.27,0,0,1-1,.19,10.6,10.6,0,0,1-1.4.1,7.72,7.72,0,0,1-1.25-.1,2.06,2.06,0,0,1-.93-.38,1.75,1.75,0,0,1-.58-.77,3.29,3.29,0,0,1-.21-1.28Z"/><path class="cls-2" d="M133,46.64a4.44,4.44,0,0,1-1.79,3.75,8.69,8.69,0,0,1-5.3,1.36,14.62,14.62,0,0,1-2.46-.19A7.29,7.29,0,0,1,121.5,51a3.47,3.47,0,0,1-1.26-1,2.24,2.24,0,0,1-.46-1.42,2.39,2.39,0,0,1,.32-1.27,3.19,3.19,0,0,1,.75-.87,12.05,12.05,0,0,0,2.1.9,8.73,8.73,0,0,0,2.73.39,3.2,3.2,0,0,0,1.5-.28.86.86,0,0,0,.52-.76.8.8,0,0,0-.38-.69,3.41,3.41,0,0,0-1.26-.41l-1-.19A8.82,8.82,0,0,1,121,43.69a4.08,4.08,0,0,1-1.34-3.29,4.39,4.39,0,0,1,.5-2.12,4.44,4.44,0,0,1,1.42-1.57,7.11,7.11,0,0,1,2.19-1,10.78,10.78,0,0,1,2.82-.35,12.81,12.81,0,0,1,2.2.18,7,7,0,0,1,1.78.52,3.36,3.36,0,0,1,1.2.89,2.07,2.07,0,0,1,.44,1.31,2.68,2.68,0,0,1-.27,1.25,2.83,2.83,0,0,1-.68.87,3.33,3.33,0,0,0-.76-.33,9,9,0,0,0-1.1-.32c-.4-.09-.8-.17-1.21-.24a7.87,7.87,0,0,0-1.12-.09,4.26,4.26,0,0,0-1.61.24.77.77,0,0,0-.57.74.65.65,0,0,0,.32.56,3.43,3.43,0,0,0,1.19.41l1,.22a9.38,9.38,0,0,1,4.31,1.91A4.14,4.14,0,0,1,133,46.64Z"/><path class="cls-2" d="M135.45,31.63a2.77,2.77,0,0,1,.81-2,3.16,3.16,0,0,1,4.25,0,2.92,2.92,0,0,1,0,4,3.16,3.16,0,0,1-4.25,0A2.77,2.77,0,0,1,135.45,31.63Zm5.62,19.55-1,.17a7.87,7.87,0,0,1-2.62,0,2.15,2.15,0,0,1-.93-.38,1.83,1.83,0,0,1-.58-.77,3.3,3.3,0,0,1-.2-1.28V36.11l1-.18a8.94,8.94,0,0,1,1.37-.11,7.82,7.82,0,0,1,1.25.1,2.06,2.06,0,0,1,.93.38,1.83,1.83,0,0,1,.58.77,3.29,3.29,0,0,1,.21,1.28Z"/><path class="cls-2" d="M154.19,41.5a1.74,1.74,0,0,0-.56-1.43,2.21,2.21,0,0,0-1.49-.46,4.76,4.76,0,0,0-1.25.16,3.11,3.11,0,0,0-1.06.47V51.18a7.27,7.27,0,0,1-1,.19,10.6,10.6,0,0,1-1.4.1,7.72,7.72,0,0,1-1.25-.1,2.06,2.06,0,0,1-.93-.38,1.75,1.75,0,0,1-.58-.77,3.29,3.29,0,0,1-.21-1.28V39.48a2.38,2.38,0,0,1,.37-1.39,3.82,3.82,0,0,1,1-1,8.71,8.71,0,0,1,2.69-1.23,12.79,12.79,0,0,1,3.62-.48A8.5,8.5,0,0,1,157.62,37a5.31,5.31,0,0,1,1.93,4.34v9.87a7.49,7.49,0,0,1-1,.19,10.6,10.6,0,0,1-1.4.1,7.82,7.82,0,0,1-1.25-.1A2.15,2.15,0,0,1,155,51a1.83,1.83,0,0,1-.58-.77,3.3,3.3,0,0,1-.2-1.28Z"/><path class="cls-2" d="M178.72,43.55a9.44,9.44,0,0,1-.6,3.48,7,7,0,0,1-1.69,2.57,7.07,7.07,0,0,1-2.6,1.58,10,10,0,0,1-3.37.54,9.55,9.55,0,0,1-3.38-.57,7.53,7.53,0,0,1-2.6-1.62A7.38,7.38,0,0,1,162.79,47a9.21,9.21,0,0,1-.6-3.41,9,9,0,0,1,.6-3.37,7.28,7.28,0,0,1,1.69-2.57,7.41,7.41,0,0,1,2.6-1.63,9.55,9.55,0,0,1,3.38-.57,9.27,9.27,0,0,1,3.37.59,7.48,7.48,0,0,1,2.6,1.64,7.15,7.15,0,0,1,1.69,2.57A9,9,0,0,1,178.72,43.55Zm-11,0a5,5,0,0,0,.74,3,2.43,2.43,0,0,0,2.07,1,2.29,2.29,0,0,0,2-1,5.1,5.1,0,0,0,.71-2.93,5.06,5.06,0,0,0-.72-2.92,2.38,2.38,0,0,0-2-1,2.36,2.36,0,0,0-2.05,1A5,5,0,0,0,167.68,43.55Z"/><path class="cls-2" d="M131.11,42.46l-.12,0,0-.19Z"/><line class="cls-2" x1="128.24" y1="46.44" x2="128.07" y2="46.27"/><path class="cls-2" d="M118,38.25l0-.23.11-.06C118.09,38.06,118.06,38.15,118,38.25Z"/><g class="cls-3"><line class="cls-2" x1="37.38" y1="43.75" x2="36.92" y2="43.29"/><path class="cls-2" d="M8.24,22.13,8.31,22Z"/><path class="cls-2" d="M36.43,39.09C29.59,45,22.83,49.41,17,51.75l-.35.13c-6,2.35-10.89,2.49-13.8-.09-.11-.1-.22-.2-.32-.31A6.53,6.53,0,0,1,2,50.85l-.12-.16-.12-.18a1,1,0,0,1-.11-.17,1.18,1.18,0,0,1-.11-.19A1.42,1.42,0,0,1,1.45,50l-.12-.22a.8.8,0,0,0-.08-.16,10.52,10.52,0,0,1-.41-1l-.12-.4c-.07-.24-.12-.48-.17-.73a1.16,1.16,0,0,1,0-.18l0-.14a.88.88,0,0,0,0-.16,1.87,1.87,0,0,1,0-.25s0-.09,0-.14l0-.25,0-.27h0c0-.09,0-.18,0-.27a1.21,1.21,0,0,1,0-.19c0-.31,0-.63,0-1V44c0-.09,0-.18,0-.26s0-.18,0-.27a.49.49,0,0,0,0-.12c0-.08,0-.17,0-.25l0-.31a1.63,1.63,0,0,1,0-.31,1.23,1.23,0,0,1,0-.19l0-.28,0-.27v0c0-.15,0-.3.07-.46s.07-.47.11-.7a3.4,3.4,0,0,1,.07-.34c0-.12,0-.24.07-.36s0-.21.07-.32l.06-.29c0-.12.05-.24.08-.36s.05-.21.08-.32.11-.44.17-.67c0,0,0-.11.05-.17s.07-.26.1-.39l.06-.19.12-.42c0-.18.11-.35.16-.53s.07-.23.11-.34.13-.4.2-.6l.12-.38c.05-.14.1-.28.16-.43s.06-.19.1-.28c.08-.24.17-.48.26-.72l0-.08c.18-.46.36-.93.55-1.4l.3-.7c.38-.91.79-1.83,1.24-2.76L5,28.15s0-.11.08-.16l.28-.56,0-.05.38-.75c.27-.54.55-1.07.84-1.61L7,24.24,8,22.63l.24-.41.05-.09L8.31,22a.86.86,0,0,1,.1-.16,1,1,0,0,1,.08-.14l.09-.15.16-.25.14-.22.27-.42c.23-.34.47-.7.71-1a32,32,0,0,0-1.2,4.7h0A31,31,0,0,0,8.24,28l-.06.11h0c-2.69,6.45-3.23,11.7-.69,14A5.33,5.33,0,0,0,11,43.3h.23c4.8,0,12.16-4,19.94-10.58l4.62,5.62Z"/><path class="cls-2" d="M77.25,2.48,73,11.67,65.66,2.5,75.53.36a1.43,1.43,0,0,1,.5,0,1.59,1.59,0,0,1,.3.06,1.54,1.54,0,0,1,.72.5A1.49,1.49,0,0,1,77.25,2.48Z"/><path class="cls-2" d="M69.86,18.25l-29,23.23a.4.4,0,0,1-.56-.06l-5.47-6.83L64,11.22h.12a5.76,5.76,0,0,0,5.73,7Z"/><path class="cls-2" d="M69.86,18.25l-29,23.23a.4.4,0,0,1-.56-.06l-5.47-6.83L64,11.22h.12a5.76,5.76,0,0,0,5.73,7Z"/><path class="cls-2" d="M64,11.22,34.79,34.59l-5.34-6.68a.4.4,0,0,1,.06-.56l29-23.16a5.75,5.75,0,0,0,1.68,5.5h0a5.83,5.83,0,0,0,.88.67l.24.14a6.61,6.61,0,0,0,.76.36,6,6,0,0,0,1.41.33Z"/><path class="cls-2" d="M27.86,19.25,32.46,25,45.19,14.8l-9-2.05A1.35,1.35,0,0,0,35,13l-7.09,5.67A.4.4,0,0,0,27.86,19.25Z"/><path class="cls-2" d="M48.36,44.87l-4.59-5.75L56.5,28.93l0,9.24A1.38,1.38,0,0,1,56,39.26l-7.09,5.67A.4.4,0,0,1,48.36,44.87Z"/><path class="cls-2" d="M26.78,34.18H41.1a0,0,0,0,1,0,0v1.48a.71.71,0,0,1-.71.71H27.48a.71.71,0,0,1-.71-.71V34.18a0,0,0,0,1,0,0Z" transform="translate(40.28 -13.26) rotate(51.34)"/><path class="cls-2" d="M8.94,51.1l0-.25L9,50.79Z"/><path class="cls-2" d="M9.32,22.13,9.39,22Z"/><path class="cls-2" d="M10,51.1l0-.25.13-.06Z"/></g></svg>